<svg width="578" height="581" viewBox="0 0 578 581" fill="none" xmlns="http://www.w3.org/2000/svg">
<path fill-rule="evenodd" clip-rule="evenodd" d="M282.5 565C438.52 565 565 438.52 565 282.5C565 237.48 554.469 194.919 535.736 157.148C558.917 150.644 566.633 142.615 567.5 139C566.821 139.47 566.106 139.92 565.36 140.35L564.5 142.315C559.182 144.235 553.165 145.676 547.095 146.752C541.134 148.018 535.44 148.675 531.487 148.922L531.433 148.822C522.889 149.617 515.508 149.815 511.5 149.815C502.5 149.815 497.5 154.815 485 174.815C482.92 178.142 481.09 181.11 479.43 183.801C471.114 197.283 467.087 203.811 457.5 213.815C448.3 223.415 427 224.482 417.5 223.815C435.296 231.442 445.095 232.501 448.62 232.008C440.333 234.344 424.574 252.312 417.5 261.315C411.5 266.915 384 263.648 371 261.315C387 269.315 400.667 269.982 405.5 269.315C398.3 282.515 358.167 278.482 339 274.815C358.6 287.215 377.5 289.315 384.5 288.815C364.1 292.815 345.667 320.815 339 334.315C336.833 337.648 326.2 347.315 301 359.315C275.8 371.315 249.167 377.648 239 379.315C269.8 385.315 303.833 371.815 317 364.315C313.4 380.315 278.167 392.982 261 397.315C289.4 394.915 302.167 398.315 305 400.315C294.188 402.374 284.701 407.747 274.425 413.568C264.741 419.052 254.356 424.934 241.5 428.815C220.3 435.215 196 434.482 186.5 433.315C197.3 438.115 204 446.648 206 450.315C196.4 444.315 183 442.815 177.5 442.815C165.473 466.367 158.181 502.79 154.124 534.214C192.642 553.898 236.275 565 282.5 565ZM449.5 231.815C449.217 231.857 448.923 231.922 448.62 232.008C448.977 231.958 449.27 231.892 449.5 231.815Z" fill="url(#paint0_linear_507_29)"/>
<path d="M451.338 55.9838C544.475 48.6037 574.296 84.415 577.343 107.688C569.042 90.6177 544.595 72.1802 497.438 83.4671C493.358 84.2494 489.398 85.1688 485.63 86.1722C485.779 86.3268 485.929 86.4815 486.078 86.6363C464.564 93.4554 438.872 106.057 408.5 126.815C411.833 119.815 426.5 101.015 458.5 81.8149C404.167 84.1483 297.5 108.215 305.5 185.815C302 177.482 297.1 156.315 305.5 138.315C299.5 139.982 284.1 148.315 270.5 168.315C256.9 188.315 229.833 211.648 218 220.815C195.5 237.482 159.8 280.815 197 320.815C188.5 314.815 171.4 300.015 171 288.815C159.667 300.315 140 334.515 152 379.315C145.167 370.815 125.6 354.015 102 354.815C112.5 360.148 135.7 377.915 144.5 406.315C138.333 401.815 122.1 392.615 106.5 391.815C119.167 398.315 144.5 413.915 144.5 424.315C138.833 425.482 121.2 424.215 96 409.815C99.6667 418.648 113.4 436.315 139 436.315C126.667 439.815 102 453.315 102 479.315C108.167 466.815 128.5 442.015 160.5 442.815C153.267 456.45 142.914 487.985 143.301 528.381L143.156 528.299C143.146 544.198 144.338 561.413 148.154 573.217C148.557 575.143 148.988 577.08 149.447 579.026C141.143 570.576 128.917 550.237 127.202 518.523C50.5702 467.998 0 381.155 0 282.5C0 126.48 126.48 0 282.5 0C345.8 0 404.237 20.8192 451.338 55.9838Z" fill="url(#paint1_linear_507_29)"/>
<path d="M150.068 579.643C150.087 579.203 150.108 578.756 150.129 578.301C150.58 579.263 151.057 580.165 151.562 581C151.084 580.596 150.585 580.144 150.068 579.643Z" fill="url(#paint2_linear_507_29)"/>
<path d="M168.5 432.641C188.667 360.641 273.1 200.741 449.5 137.141C386.167 161.141 241.3 253.841 168.5 432.641Z" fill="url(#paint3_linear_507_29)"/>
<defs>
<linearGradient id="paint0_linear_507_29" x1="288.672" y1="0" x2="288.672" y2="581" gradientUnits="userSpaceOnUse">
<stop stop-color="white"/>
<stop offset="1" stop-color="#CCD7E1"/>
</linearGradient>
<linearGradient id="paint1_linear_507_29" x1="288.672" y1="0" x2="288.672" y2="581" gradientUnits="userSpaceOnUse">
<stop stop-color="white"/>
<stop offset="1" stop-color="#CCD7E1"/>
</linearGradient>
<linearGradient id="paint2_linear_507_29" x1="288.672" y1="0" x2="288.672" y2="581" gradientUnits="userSpaceOnUse">
<stop stop-color="white"/>
<stop offset="1" stop-color="#CCD7E1"/>
</linearGradient>
<linearGradient id="paint3_linear_507_29" x1="288.672" y1="0" x2="288.672" y2="581" gradientUnits="userSpaceOnUse">
<stop stop-color="white"/>
<stop offset="1" stop-color="#CCD7E1"/>
</linearGradient>
</defs>
</svg>
